<svg xmlns="http://www.w3.org/2000/svg" id="Layer_1" width="128" height="128" viewBox="0 0 128 128"><path fill="#b4fff4" d="M90.8 93.9l-9.1-15.1a68.3 68.3 0 0 0 3-18.7 20.1 20.1 0 0 0-.1-2.5c-.9-16.9-7.4-22.9-12.3-27.8a24 24 0 0 1-5.3-7.1h-.1A5.2 5.2 0 0 0 69 22a2.9 2.9 0 0 0 1.4-2.5l-.3-.7c-.4-.4-1.6-.6-3.4-.7a8.6 8.6 0 0 1 0-3.2c.1-.6.1-.6.9-.7h.1a1.3 1.3 0 0 0 1-.6c.4-.7-.1-1.5-.3-1.9h-.1v-.3c-1.3-3.3-2-5.5-2-6.8s-.4-2-.7-2.2a1.1 1.1 0 0 0-.8 0c-.2.1-.7.4-.7 2.2s-.3 2.7-2 6.8v.4a4 4 0 0 0-.4 1.3 1.3 1.3 0 0 0 .1.6 1.3 1.3 0 0 0 1 .6h.1c.9.1.9.1.9.7a15 15 0 0 1 .2 2 4.9 4.9 0 0 1-.1 1.2c-1.9.1-3.1.3-3.5.7l-.2.7a2.8 2.8 0 0 0 1.3 2.5 5.8 5.8 0 0 0 2.1.7h-.1c-1.2 2.9-3.2 4.9-5.5 7.2-4.9 4.9-11.4 10.9-12.3 27.7a20.1 20.1 0 0 0-.1 2.5 68.3 68.3 0 0 0 3 18.7l-9.4 15-5.5 32.1h6.2l5.8-20.4 9.9-8.2h.3l1.1.4.5 2.7c.1.5.3 1.8 4.9 2.1V126h5.2v-23.3c4.8-.3 5-1.5 5.1-2a17.8 17.8 0 0 0 .5-2.8l1.1-.4h.2l9.8 8.2 5.8 20.3h6.2z"/></svg>